<mxfile host="app.diagrams.net" modified="2021-03-13T02:38:50.801Z" agent="5.0 (Macintosh; Intel Mac OS X 10_14_6) AppleWebKit/537.36 (KHTML, like Gecko) Chrome/89.0.4389.72 Safari/537.36" etag="rN9QfKqwGGJ6a0ARsSuK" version="14.4.2" type="github">
  <diagram id="py7HgAGSl2aJ2bXIMnBd" name="Page-1">
    <mxGraphModel dx="786" dy="495" grid="1" gridSize="10" guides="1" tooltips="1" connect="1" arrows="1" fold="1" page="1" pageScale="1" pageWidth="1100" pageHeight="850" math="0" shadow="0">
      <root>
        <mxCell id="0" />
        <mxCell id="1" parent="0" />
        <mxCell id="QU2q_g9ejk1iB-M-npqT-3" value="Postgres" style="outlineConnect=0;dashed=0;verticalLabelPosition=bottom;verticalAlign=top;align=center;html=1;shape=mxgraph.aws3.rds_db_instance;fillColor=#2E73B8;gradientColor=none;" vertex="1" parent="1">
          <mxGeometry x="390" y="359" width="49.5" height="66" as="geometry" />
        </mxCell>
        <mxCell id="QU2q_g9ejk1iB-M-npqT-7" style="edgeStyle=orthogonalEdgeStyle;rounded=0;orthogonalLoop=1;jettySize=auto;html=1;entryX=0.5;entryY=0.02;entryDx=0;entryDy=0;entryPerimeter=0;" edge="1" parent="1" source="QU2q_g9ejk1iB-M-npqT-4" target="QU2q_g9ejk1iB-M-npqT-3">
          <mxGeometry relative="1" as="geometry" />
        </mxCell>
        <mxCell id="QU2q_g9ejk1iB-M-npqT-4" value="Parser&lt;br&gt;" style="points=[[0,0,0],[0.25,0,0],[0.5,0,0],[0.75,0,0],[1,0,0],[0,1,0],[0.25,1,0],[0.5,1,0],[0.75,1,0],[1,1,0],[0,0.25,0],[0,0.5,0],[0,0.75,0],[1,0.25,0],[1,0.5,0],[1,0.75,0]];outlineConnect=0;fontColor=#232F3E;gradientColor=#F78E04;gradientDirection=north;fillColor=#D05C17;strokeColor=#ffffff;dashed=0;verticalLabelPosition=bottom;verticalAlign=top;align=center;html=1;fontSize=12;fontStyle=0;aspect=fixed;shape=mxgraph.aws4.resourceIcon;resIcon=mxgraph.aws4.fargate;" vertex="1" parent="1">
          <mxGeometry x="240" y="240.25" width="78" height="78" as="geometry" />
        </mxCell>
        <mxCell id="QU2q_g9ejk1iB-M-npqT-10" style="edgeStyle=orthogonalEdgeStyle;rounded=0;orthogonalLoop=1;jettySize=auto;html=1;entryX=0.5;entryY=0.02;entryDx=0;entryDy=0;entryPerimeter=0;" edge="1" parent="1" source="QU2q_g9ejk1iB-M-npqT-9" target="QU2q_g9ejk1iB-M-npqT-3">
          <mxGeometry relative="1" as="geometry" />
        </mxCell>
        <mxCell id="QU2q_g9ejk1iB-M-npqT-9" value="Server" style="outlineConnect=0;dashed=0;verticalLabelPosition=bottom;verticalAlign=top;align=center;html=1;shape=mxgraph.aws3.ec2_compute_container;fillColor=#F58534;gradientColor=none;" vertex="1" parent="1">
          <mxGeometry x="500" y="262" width="60" height="34.5" as="geometry" />
        </mxCell>
        <mxCell id="QU2q_g9ejk1iB-M-npqT-12" style="edgeStyle=orthogonalEdgeStyle;rounded=0;orthogonalLoop=1;jettySize=auto;html=1;" edge="1" parent="1" source="QU2q_g9ejk1iB-M-npqT-11" target="QU2q_g9ejk1iB-M-npqT-4">
          <mxGeometry relative="1" as="geometry" />
        </mxCell>
        <mxCell id="QU2q_g9ejk1iB-M-npqT-11" value="Status" style="points=[[0,0,0],[0.25,0,0],[0.5,0,0],[0.75,0,0],[1,0,0],[0,1,0],[0.25,1,0],[0.5,1,0],[0.75,1,0],[1,1,0],[0,0.25,0],[0,0.5,0],[0,0.75,0],[1,0.25,0],[1,0.5,0],[1,0.75,0]];outlineConnect=0;fontColor=#232F3E;gradientColor=#F78E04;gradientDirection=north;fillColor=#D05C17;strokeColor=#ffffff;dashed=0;verticalLabelPosition=bottom;verticalAlign=top;align=center;html=1;fontSize=12;fontStyle=0;aspect=fixed;shape=mxgraph.aws4.resourceIcon;resIcon=mxgraph.aws4.lambda;" vertex="1" parent="1">
          <mxGeometry x="80" y="240.25" width="78" height="78" as="geometry" />
        </mxCell>
        <mxCell id="QU2q_g9ejk1iB-M-npqT-16" style="edgeStyle=orthogonalEdgeStyle;rounded=0;orthogonalLoop=1;jettySize=auto;html=1;exitX=1;exitY=0.5;exitDx=0;exitDy=0;exitPerimeter=0;" edge="1" parent="1" source="QU2q_g9ejk1iB-M-npqT-15" target="QU2q_g9ejk1iB-M-npqT-9">
          <mxGeometry relative="1" as="geometry" />
        </mxCell>
        <mxCell id="QU2q_g9ejk1iB-M-npqT-15" value="Client" style="points=[[0,0,0],[0.25,0,0],[0.5,0,0],[0.75,0,0],[1,0,0],[0,1,0],[0.25,1,0],[0.5,1,0],[0.75,1,0],[1,1,0],[0,0.25,0],[0,0.5,0],[0,0.75,0],[1,0.25,0],[1,0.5,0],[1,0.75,0]];outlineConnect=0;fontColor=#232F3E;gradientColor=#F54749;gradientDirection=north;fillColor=#C7131F;strokeColor=#ffffff;dashed=0;verticalLabelPosition=bottom;verticalAlign=top;align=center;html=1;fontSize=12;fontStyle=0;aspect=fixed;shape=mxgraph.aws4.resourceIcon;resIcon=mxgraph.aws4.amplify;" vertex="1" parent="1">
          <mxGeometry x="376" y="120" width="78" height="78" as="geometry" />
        </mxCell>
        <mxCell id="QU2q_g9ejk1iB-M-npqT-17" value="" style="shape=image;html=1;verticalAlign=top;verticalLabelPosition=bottom;labelBackgroundColor=#ffffff;imageAspect=0;aspect=fixed;image=https://cdn0.iconfinder.com/data/icons/business-collection-2027/60/time-passing-128.png" vertex="1" parent="1">
          <mxGeometry x="80" y="320.25" width="18" height="18" as="geometry" />
        </mxCell>
      </root>
    </mxGraphModel>
  </diagram>
</mxfile>
